<svg width="67" height="80" viewBox="0 0 67 80" fill="none" xmlns="http://www.w3.org/2000/svg">
<path fill-rule="evenodd" clip-rule="evenodd" d="M13.53 14H13.97V44.1C9.30997 44.01 7.88997 41.77 6.12997 38.1H-2.95639e-05C0.0999704 25.67 4.66997 19.36 13.53 14V14Z" fill="#F3736C"/>
<path fill-rule="evenodd" clip-rule="evenodd" d="M19.89 63.11C22.61 46.67 47.79 28.18 27.29 10.11C30.29 9.18 59.43 0 59.43 0C61.21 4 59.69 6 54.04 10.14H66.97C66.97 15.88 61.48 18.92 56.45 20.54C65.71 28.92 65.02 35.82 64.89 66.89C52.8246 77.384 36.5359 81.6117 20.89 78.31C19.4175 73.3831 19.0757 68.1874 19.89 63.11V63.11ZM25.66 50.98C25.6678 50.9992 25.6678 51.0208 25.66 51.04C25.6678 51.0208 25.6678 50.9992 25.66 50.98V50.98Z" fill="#89D4E5"/>
<ellipse cx="4.66" cy="4.38" rx="4.66" ry="4.38" transform="matrix(-1 0 0 1 26.97 17)" fill="black"/>
</svg>
